<!DOCTYPE svg PUBLIC "-//W3C//DTD SVG 1.1//EN" "http://www.w3.org/Graphics/SVG/1.1/DTD/svg11.dtd">
<!-- Uploaded to: SVG Repo, www.svgrepo.com, Transformed by: SVG Repo Mixer Tools -->
<svg fill="#61764B" version="1.1" id="Capa_1" xmlns="http://www.w3.org/2000/svg" xmlns:xlink="http://www.w3.org/1999/xlink" width="800px" height="800px" viewBox="0 0 950 950" xml:space="preserve">
<g id="SVGRepo_bgCarrier" stroke-width="0"/>
<g id="SVGRepo_tracerCarrier" stroke-linecap="round" stroke-linejoin="round"/>
<g id="SVGRepo_iconCarrier"> <g> <g> <path d="M60.446,941.051c1.936,1.596,4.027,3.012,6.249,4.219c1.111,0.604,2.254,1.156,3.426,1.65 c4.689,1.982,9.845,3.08,15.257,3.08h70.293h638.657h70.293c5.412,0,10.566-1.098,15.256-3.08c1.172-0.496,2.316-1.047,3.426-1.65 c2.223-1.207,4.314-2.621,6.25-4.219c8.711-7.189,14.264-18.07,14.264-30.246v-70.293V656.029 c0-21.646-17.551-39.195-39.195-39.195h-70.293c-21.648,0-39.195,17.549-39.195,39.195v145.287H194.867V656.029 c0-21.646-17.548-39.195-39.195-39.195H85.378c-21.647,0-39.195,17.549-39.195,39.195v184.482v70.293 C46.184,922.98,51.735,933.861,60.446,941.051z"/> <path d="M231.623,498.771l220.374,202.906c6.5,5.984,14.751,8.977,23.003,8.977c8.252,0,16.502-2.992,23.002-8.977 l220.375-202.906c9.182-8.455,3.201-23.785-9.283-23.785H650.27V31.97C650.27,14.313,635.957,0,618.299,0H330.017 C313.29,0,299.73,13.561,299.73,30.288v444.699h-58.826C228.422,474.987,222.44,490.316,231.623,498.771z"/> </g> </g> </g>
</svg>