<svg width="1264" height="1188" xmlns="http://www.w3.org/2000/svg" xmlns:xlink="http://www.w3.org/1999/xlink" xml:space="preserve" overflow="hidden"><defs><filter id="fx0" x="-10%" y="-10%" width="120%" height="120%" filterUnits="userSpaceOnUse" primitiveUnits="userSpaceOnUse"><feComponentTransfer color-interpolation-filters="sRGB"><feFuncR type="discrete" tableValues="0 0"/><feFuncG type="discrete" tableValues="0 0"/><feFuncB type="discrete" tableValues="0 0"/><feFuncA type="linear" slope="0.341176" intercept="0"/></feComponentTransfer><feGaussianBlur stdDeviation="7.64536 7.63242"/></filter><clipPath id="clip1"><rect x="992" y="985" width="1264" height="1188"/></clipPath><linearGradient x1="1335.49" y1="1246.97" x2="1553.54" y2="2124.92" gradientUnits="userSpaceOnUse" spreadMethod="reflect" id="fill2"><stop offset="0" stop-color="#FAD6A5"/><stop offset="0.0140845" stop-color="#F9D5A6"/><stop offset="0.028169" stop-color="#F9D5A8"/><stop offset="0.0422535" stop-color="#F9D5AA"/><stop offset="0.056338" stop-color="#F9D5AC"/><stop offset="0.0704225" stop-color="#F9D5AE"/><stop offset="0.084507" stop-color="#F9D5AF"/><stop offset="0.0985916" stop-color="#F9D5B1"/><stop offset="0.112676" stop-color="#F9D5B3"/><stop offset="0.126761" stop-color="#F8D5B5"/><stop offset="0.140845" stop-color="#F8D5B6"/><stop offset="0.15493" stop-color="#F8D5B8"/><stop offset="0.169014" stop-color="#F8D5BA"/><stop offset="0.183099" stop-color="#F7D5BB"/><stop offset="0.197183" stop-color="#F7D5BD"/><stop offset="0.211268" stop-color="#F7D5BE"/><stop offset="0.225352" stop-color="#F6D5C0"/><stop offset="0.239437" stop-color="#F6D5C1"/><stop offset="0.253521" stop-color="#F6D5C3"/><stop offset="0.267606" stop-color="#F5D5C4"/><stop offset="0.28169" stop-color="#F5D5C6"/><stop offset="0.295775" stop-color="#F4D5C7"/><stop offset="0.309859" stop-color="#F4D5C9"/><stop offset="0.323944" stop-color="#F3D5CA"/><stop offset="0.338028" stop-color="#F3D5CB"/><stop offset="0.352113" stop-color="#F2D5CD"/><stop offset="0.366197" stop-color="#F2D5CE"/><stop offset="0.380282" stop-color="#F1D5CF"/><stop offset="0.394366" stop-color="#F1D5D0"/><stop offset="0.408451" stop-color="#F0D5D2"/><stop offset="0.422535" stop-color="#EFD5D3"/><stop offset="0.43662" stop-color="#EFD5D4"/><stop offset="0.450704" stop-color="#EED5D5"/><stop offset="0.464789" stop-color="#EDD5D6"/><stop offset="0.478873" stop-color="#EDD5D7"/><stop offset="0.492958" stop-color="#ECD5D8"/><stop offset="0.507042" stop-color="#EBD5D9"/><stop offset="0.521127" stop-color="#EAD5DA"/><stop offset="0.535211" stop-color="#EAD5DB"/><stop offset="0.549296" stop-color="#E9D5DC"/><stop offset="0.56338" stop-color="#E8D5DD"/><stop offset="0.577465" stop-color="#E7D5DE"/><stop offset="0.591549" stop-color="#E6D5DF"/><stop offset="0.605634" stop-color="#E6D5E0"/><stop offset="0.619718" stop-color="#E5D5E1"/><stop offset="0.633803" stop-color="#E4D5E2"/><stop offset="0.647887" stop-color="#E3D5E2"/><stop offset="0.661972" stop-color="#E2D5E3"/><stop offset="0.676056" stop-color="#E1D5E4"/><stop offset="0.690141" stop-color="#E0D5E4"/><stop offset="0.704225" stop-color="#DFD5E5"/><stop offset="0.71831" stop-color="#DED5E6"/><stop offset="0.732394" stop-color="#DDD5E6"/><stop offset="0.746479" stop-color="#DCD5E7"/><stop offset="0.760563" stop-color="#DBD5E8"/><stop offset="0.774648" stop-color="#DAD5E8"/><stop offset="0.788732" stop-color="#D9D5E9"/><stop offset="0.802817" stop-color="#D8D5E9"/><stop offset="0.816901" stop-color="#D7D5EA"/><stop offset="0.830986" stop-color="#D5D5EA"/><stop offset="0.84507" stop-color="#D4D5EA"/><stop offset="0.859155" stop-color="#D3D5EB"/><stop offset="0.873239" stop-color="#D2D5EB"/><stop offset="0.887324" stop-color="#D1D5EB"/><stop offset="0.901408" stop-color="#D0D5EC"/><stop offset="0.915493" stop-color="#CED5EC"/><stop offset="0.929577" stop-color="#CDD5EC"/><stop offset="0.943662" stop-color="#CCD5EC"/><stop offset="0.957747" stop-color="#CAD5EC"/><stop offset="0.971831" stop-color="#C9D5EC"/><stop offset="0.985915" stop-color="#C8D5EC"/><stop offset="1" stop-color="#C7D5ED"/></linearGradient><linearGradient x1="1900.83" y1="1136.76" x2="1721.22" y2="2023.37" gradientUnits="userSpaceOnUse" spreadMethod="reflect" id="fill3"><stop offset="0" stop-color="#CFB997"/><stop offset="0.65" stop-color="#CAC9C8"/><stop offset="1" stop-color="#C7D5ED"/></linearGradient><clipPath id="clip4"><rect x="0.333618" y="27.6432" width="394" height="330.719"/></clipPath><clipPath id="clip5"><rect x="0" y="0" width="394" height="393"/></clipPath><clipPath id="clip6"><rect x="23" y="23" width="348" height="347"/></clipPath><clipPath id="clip7"><rect x="23" y="23" width="348" height="347"/></clipPath><clipPath id="clip8"><rect x="23" y="23" width="348" height="347"/></clipPath><clipPath id="clip9"><rect x="1102" y="1097" width="1012" height="1011"/></clipPath><clipPath id="clip10"><rect x="1102" y="1097" width="1012" height="1011"/></clipPath><clipPath id="clip11"><rect x="1102" y="1097" width="1012" height="1011"/></clipPath></defs><g clip-path="url(#clip1)" transform="translate(-992 -985)"><path d="M999.209 1576.65C967.406 1448.6 1045.43 1319.02 1173.47 1287.21L1497.5 1206.73C1625.54 1174.93 1755.13 1252.95 1786.93 1381L1889.82 1795.24C1921.62 1923.29 1843.6 2052.88 1715.55 2084.68L1391.53 2165.16C1263.48 2196.96 1133.9 2118.94 1102.1 1990.89Z" fill="url(#fill2)" fill-rule="evenodd"/><path d="M1137.5 1582.16C1133.5 1566.07 1143.31 1549.77 1159.41 1545.78L1563.71 1445.36C1579.81 1441.36 1596.1 1451.17 1600.1 1467.27L1600.1 1467.27C1604.09 1483.37 1594.29 1499.66 1578.19 1503.65L1173.88 1604.07C1157.79 1608.07 1141.5 1598.26 1137.5 1582.16Z" stroke="#FFFFFF" stroke-width="4.58333" stroke-miterlimit="8" fill="#FFFFFF" fill-rule="evenodd"/><path d="M1199.3 1740.19C1194.62 1721.35 1206.11 1702.27 1224.95 1697.59L1306.69 1677.29C1325.54 1672.61 1344.62 1684.09 1349.3 1702.94L1349.3 1702.94C1353.98 1721.79 1342.49 1740.86 1323.65 1745.54L1241.91 1765.84C1223.06 1770.53 1203.99 1759.04 1199.3 1740.19Z" stroke="#FFFFFF" stroke-width="4.58333" stroke-miterlimit="8" fill="#FFFFFF" fill-rule="evenodd"/><path d="M1248.47 1894.87C1243.79 1876.02 1255.28 1856.95 1274.13 1852.26L1355.86 1831.96C1374.71 1827.28 1393.79 1838.77 1398.47 1857.61L1398.47 1857.61C1403.15 1876.46 1391.66 1895.54 1372.82 1900.22L1291.08 1920.52C1272.23 1925.2 1253.16 1913.72 1248.47 1894.87Z" stroke="#FFFFFF" stroke-width="4.58333" stroke-miterlimit="8" fill="#FFFFFF" fill-rule="evenodd"/><path d="M1455.65 1290.32C1481.85 1161.01 1607.91 1077.42 1737.22 1103.62L2064.44 1169.9C2193.75 1196.1 2277.34 1322.16 2251.15 1451.47L2166.4 1869.81C2140.2 1999.12 2014.14 2082.71 1884.83 2056.51L1557.61 1990.23C1428.3 1964.03 1344.71 1837.97 1370.9 1708.66Z" fill="url(#fill3)" fill-rule="evenodd"/><g clip-path="url(#clip4)" filter="url(#fx0)" transform="matrix(2.99746 0 0 3.00254 1017 984)"><g clip-path="url(#clip5)"><g clip-path="url(#clip6)" transform="matrix(1 0 0 1 -1.2368e-05 -1.23978e-05)"><g clip-path="url(#clip7)" transform="matrix(1 0 0 1 -1.2368e-05 -1.23978e-05)"><g clip-path="url(#clip8)" transform="matrix(1 0 0 1 -1.2368e-05 -1.23978e-05)"><path d="M196.594 178.148C191.81 207.867 180.073 236.036 162.341 260.36L163.257 261.277C157.634 261.919 152.257 262.626 147.561 263.308 148.947 257.419 148.088 251.224 145.15 245.934 142.258 241.595 137.35 239.033 132.136 239.142L131.992 239.142C122.15 239.218 111.582 244.462 102.693 250.46 102.451 249.908 102.184 249.359 101.888 248.822 99.0086 243.643 93.8356 240.145 87.9572 239.402 83.4505 238.873 78.8864 239.638 74.7984 241.607 76.651 233.777 76.4882 225.605 74.3256 217.856 71.3405 208.649 64.0751 201.463 54.8365 198.579 47.9609 196.339 40.6571 195.734 33.5068 196.815 26.8382 197.781 20.3127 199.559 14.0755 202.109 8.45816 204.159 5.56637 210.375 7.61652 215.992 9.66666 221.609 15.8823 224.501 21.4996 222.451 21.6733 222.388 21.8453 222.32 22.0155 222.248 26.604 220.359 31.404 219.032 36.3111 218.296 40.1338 217.664 44.0508 217.926 47.7555 219.061 50.5836 219.727 52.8541 221.829 53.7358 224.597 57.9079 237.334 44.0093 266.279 32.1101 284.147 31.5795 284.913 31.0851 285.649 30.6195 286.338 27.272 291.293 28.5751 298.024 33.5301 301.371 38.4567 304.699 45.145 303.433 48.5134 298.533 48.7805 298.147 49.1955 297.541 49.7369 296.729 61.1308 280.127 75.9208 264.518 82.807 261.392 82.3847 264.518 81.546 267.573 80.3131 270.476 77.8968 275.946 80.3719 282.339 85.8415 284.755 89.9548 286.572 94.7628 285.658 97.9219 282.458 105.939 274.288 115.274 267.524 125.535 262.45 124.656 265.873 123.521 269.226 122.139 272.479 119.756 277.964 122.27 284.342 127.754 286.724 129.734 287.585 131.926 287.834 134.049 287.439 134.269 287.396 156.317 283.339 177.647 281.614 179.238 281.474 180.778 280.981 182.154 280.17L182.876 280.892C207.201 263.158 235.371 251.422 265.091 246.638 265.091 246.638 269.725 221.494 305.795 185.359L257.848 137.416C221.706 173.485 196.594 178.148 196.594 178.148ZM234.277 222.681C231.479 225.473 227.265 226.285 223.63 224.731L175.99 272.371 170.89 267.26 218.53 219.62C216.433 214.701 218.72 209.013 223.64 206.915 228.559 204.818 234.247 207.105 236.345 212.024 237.896 215.663 237.079 219.879 234.281 222.674Z" fill="#61764B" fill-opacity="0.9" transform="matrix(1.00269 0 0 1 23.2981 23.2969)"/><path d="M261.435 120.24 323.093 181.898C323.093 181.898 329.196 176.308 339.186 167.13L339.186 36.0909C296.252 82.2873 261.435 120.24 261.435 120.24Z" fill="#61764B" fill-opacity="0.9" transform="matrix(1.00269 0 0 1 23.2981 23.2969)"/></g></g></g></g></g><g clip-path="url(#clip9)"><g clip-path="url(#clip10)"><g clip-path="url(#clip11)"><path d="M573.091 519.319C559.143 605.953 524.93 688.066 473.238 758.973L475.91 761.645C459.518 763.518 443.842 765.58 430.155 767.568 434.195 750.4 431.689 732.342 423.127 716.921 414.697 704.271 400.388 696.802 385.189 697.121L384.768 697.121C356.078 697.342 325.273 712.629 299.36 730.114 298.655 728.505 297.876 726.905 297.014 725.338 288.619 710.242 273.54 700.046 256.403 697.878 243.266 696.337 229.961 698.566 218.044 704.307 223.445 681.482 222.97 657.66 216.666 635.069 207.964 608.231 186.785 587.283 159.854 578.877 139.81 572.345 118.519 570.584 97.6754 573.733 78.2358 576.55 59.2132 581.734 41.0312 589.167 24.6563 595.143 16.2265 613.263 22.2029 629.637 28.1792 646.012 46.2985 654.442 62.6734 648.465 63.1797 648.281 63.681 648.083 64.1771 647.873 77.5531 642.367 91.5456 638.499 105.85 636.353 116.994 634.511 128.412 635.275 139.212 638.583 147.456 640.524 154.074 646.652 156.645 654.722 168.807 691.85 128.291 776.227 93.6039 828.316 92.0573 830.546 90.6159 832.692 89.2588 834.702 79.5005 849.146 83.2991 868.766 97.7433 878.524 112.105 888.227 131.602 884.534 141.421 870.252 142.2 869.126 143.409 867.359 144.988 864.991 178.202 816.595 221.316 771.093 241.39 761.982 240.159 771.094 237.714 780 234.12 788.463 227.076 804.407 234.292 823.044 250.236 830.087 262.227 835.385 276.242 832.72 285.451 823.392 308.823 799.574 336.034 779.857 365.946 765.064 363.383 775.045 360.074 784.818 356.046 794.302 349.099 810.289 356.428 828.882 372.415 835.828 378.187 838.336 384.577 839.062 390.765 837.911 391.407 837.784 455.678 825.959 517.856 820.93 522.495 820.524 526.985 819.086 530.997 816.722L533.101 818.826C604.009 767.13 686.128 732.917 772.766 718.973 772.766 718.973 786.274 645.674 891.42 540.339L751.65 400.581C646.295 505.726 573.091 519.319 573.091 519.319ZM682.939 649.135C674.783 657.275 662.498 659.64 651.902 655.111L513.027 793.986 498.161 779.089 637.036 640.214C630.922 625.874 637.59 609.291 651.931 603.176 666.271 597.063 682.853 603.731 688.967 618.07 693.49 628.677 691.107 640.967 682.949 649.114Z" fill="#61764B" fill-opacity="0.9" transform="matrix(1.00099 0 0 1 1102 1098)"/><path d="M762.108 350.512 941.846 530.25C941.846 530.25 959.637 513.953 988.758 487.199L988.758 105.208C863.603 239.875 762.108 350.512 762.108 350.512Z" fill="#61764B" fill-opacity="0.9" transform="matrix(1.00099 0 0 1 1102 1098)"/></g></g></g></g></svg>